<svg width="67" height="70" viewBox="0 0 67 70" fill="none" xmlns="http://www.w3.org/2000/svg">
    <path
        d="M64.6426 32.9994C65.6773 31.8124 66.4025 30.3947 66.755 28.8692C67.1076 27.3436 67.077 25.7564 66.6659 24.2452C66.2548 22.7339 65.4756 21.3443 64.3959 20.1969C63.3161 19.0494 61.9685 18.1788 60.4699 17.6606C60.7635 16.1229 60.6718 14.5379 60.2028 13.0431C59.7338 11.5482 58.9015 10.1887 57.7783 9.08239C56.6551 7.9761 55.2748 7.15649 53.7573 6.69466C52.2397 6.23282 50.6306 6.14272 49.0697 6.43217C48.544 4.95559 47.6603 3.62773 46.4955 2.56387C45.3306 1.50001 43.9198 0.732305 42.3854 0.327417C40.851 -0.0774708 39.2395 -0.107307 37.6907 0.240498C36.142 0.588304 34.7028 1.30324 33.4982 2.32323C32.2932 1.30394 30.854 0.58965 29.3053 0.242325C27.7567 -0.105 26.1454 -0.0748695 24.6112 0.330101C23.077 0.735072 21.6663 1.50265 20.5015 2.56626C19.3367 3.62986 18.4529 4.95736 17.9268 6.4336C16.3659 6.14462 14.757 6.23512 13.2397 6.69727C11.7223 7.15941 10.3424 7.97923 9.21951 9.08563C8.09662 10.192 7.26471 11.5516 6.79595 13.0463C6.32718 14.5411 6.23572 16.126 6.52948 17.6635C5.03085 18.1817 3.68321 19.0523 2.60347 20.1997C1.52374 21.3472 0.744511 22.7368 0.333398 24.248C-0.0777153 25.7593 -0.108307 27.3465 0.244286 28.872C0.596879 30.3976 1.32202 31.8153 2.35677 33.0023C1.3217 34.1892 0.596341 35.6071 0.243648 37.1327C-0.109045 38.6584 -0.078427 40.2458 0.332866 41.7572C0.744159 43.2686 1.52369 44.6583 2.60379 45.8056C3.6839 46.9529 5.03195 47.8233 6.53093 48.3411C6.23692 49.8786 6.32828 51.4636 6.7971 52.9584C7.26592 54.4533 8.09804 55.8129 9.22121 56.9191C10.3444 58.0253 11.7247 58.8448 13.2422 59.3065C14.7598 59.7681 16.3689 59.8579 17.9297 59.5681C18.4558 61.0443 19.3396 62.3718 20.5044 63.4354C21.6692 64.499 23.0799 65.2666 24.6141 65.6716C26.1483 66.0765 27.7596 66.1067 29.3082 65.7594C30.8569 65.412 32.2962 64.6977 33.5011 63.6784C34.7061 64.6981 36.1454 65.4126 37.6942 65.76C39.2431 66.1074 40.8545 66.0773 42.3888 65.6721C43.9231 65.267 45.3339 64.4991 46.4986 63.4351C47.6634 62.3711 48.5469 61.0432 49.0726 59.5667C50.6335 59.8562 52.2425 59.7661 53.7601 59.3043C55.2776 58.8425 56.6578 58.0228 57.781 56.9165C58.9041 55.8102 59.7362 54.4506 60.205 52.9557C60.6738 51.4608 60.7652 49.8758 60.4713 48.3382C61.97 47.8201 63.3178 46.9495 64.3976 45.802C65.4774 44.6546 66.2566 43.2649 66.6676 41.7535C67.0786 40.2422 67.1089 38.6549 66.7561 37.1293C66.4032 35.6038 65.6777 34.1862 64.6426 32.9994Z"
        fill="#2C6AE5" />
    <path
        d="M29.6 42.5V18H35.85V42.5H29.6ZM32.75 53.65C31.7 53.65 30.8083 53.2833 30.075 52.55C29.3583 51.8167 29 50.9167 29 49.85C29 48.8167 29.3583 47.9417 30.075 47.225C30.8083 46.5083 31.7 46.15 32.75 46.15C33.7833 46.15 34.6583 46.5083 35.375 47.225C36.0917 47.9417 36.45 48.8167 36.45 49.85C36.45 50.9167 36.0917 51.8167 35.375 52.55C34.6583 53.2833 33.7833 53.65 32.75 53.65Z"
        fill="white" />
</svg>